<svg xmlns="http://www.w3.org/2000/svg" width="180" height="108" viewBox="0 0 180 108" role="img" aria-labelledby="nav-title"><title id="nav-title">LinkedIn</title><g transform="translate(4 0)"><rect x=".5" y=".5" width="175" height="107" rx="2" fill="#f5f2ea" stroke="#dbd5ca"/>
<style>text{font-family:Arial,Helvetica,sans-serif;font-weight:900;fill:#171717;letter-spacing:-.5px}.orbit{transform-origin:14px 14px}.trace{stroke-dasharray:90}@media(prefers-reduced-motion:no-preference){.orbit{animation:orbit 9s linear infinite}.trace{animation:trace 5.6s ease-in-out infinite}.rule{animation:rule 5.6s ease-in-out infinite}.layer-one{animation:layer1 5s ease-in-out infinite}.layer-two{animation:layer2 5s ease-in-out infinite}}@keyframes orbit{to{transform:rotate(360deg)}}@keyframes trace{0%,100%{stroke-dashoffset:0}40%{stroke-dashoffset:90}75%{stroke-dashoffset:0}}@keyframes rule{0%,100%{transform:translateX(0)}50%{transform:translateX(104px)}}@keyframes layer1{0%,100%{transform:translateY(0)}45%{transform:translateY(-3px)}}@keyframes layer2{0%,100%{transform:translateY(0)}55%{transform:translateY(-4px)}}</style>
<g transform="translate(15 17)"><rect x="1" y="1" width="26" height="26" rx="2" fill="#171717"/><g fill="#f5f2ea"><circle cx="7.4" cy="8" r="1.8"/><path d="M5.9 11h3v10h-3zm5.5 0h2.9v1.4c.7-1.1 1.7-1.7 3.2-1.7 2.9 0 3.7 1.7 3.7 4.4V21h-3v-5.2c0-1.3-.1-2.5-1.7-2.5s-2.1 1.2-2.1 2.4V21h-3z"/></g><path class="trace" d="M1 1h26v26H1z" fill="none" stroke="#ef5a24" stroke-width="1.6" stroke-linecap="round" stroke-linejoin="round"/></g><path d="M139 35l12-12m-9 0h9v9" fill="none" stroke="#171717" stroke-width="1.8"/>
<text x="15" y="78" font-size="27">LinkedIn</text><path d="M15 103h146" stroke="#dbd5ca"/><path class="rule" d="M15 103h36" stroke="#ef5a24" stroke-width="2"/></g></svg>
